<svg xmlns="http://www.w3.org/2000/svg">
  <symbol id="icon-calendar-check-regular" viewBox="0 0 256 256">
    <path d="M208,32H184V24a8,8,0,0,0-16,0v8H88V24a8,8,0,0,0-16,0v8H48A16,16,0,0,0,32,48V208a16,16,0,0,0,16,16H208a16,16,0,0,0,16-16V48A16,16,0,0,0,208,32ZM72,48v8a8,8,0,0,0,16,0V48h80v8a8,8,0,0,0,16,0V48h24V80H48V48ZM208,208H48V96H208V208Zm-38.34-85.66a8,8,0,0,1,0,11.32l-48,48a8,8,0,0,1-11.32,0l-24-24a8,8,0,0,1,11.32-11.32L116,164.69l42.34-42.35A8,8,0,0,1,169.66,122.34Z"/>
  </symbol>
  <symbol id="icon-calendar-check-fill" viewBox="0 0 256 256">
    <path d="M208,32H184V24a8,8,0,0,0-16,0v8H88V24a8,8,0,0,0-16,0v8H48A16,16,0,0,0,32,48V208a16,16,0,0,0,16,16H208a16,16,0,0,0,16-16V48A16,16,0,0,0,208,32ZM169.66,133.66l-48,48a8,8,0,0,1-11.32,0l-24-24a8,8,0,0,1,11.32-11.32L116,164.69l42.34-42.35a8,8,0,0,1,11.32,11.32ZM48,80V48H72v8a8,8,0,0,0,16,0V48h80v8a8,8,0,0,0,16,0V48h24V80Z"/>
  </symbol>
  <symbol id="icon-cooking-pot-regular" viewBox="0 0 256 256">
    <path d="M88,48V16a8,8,0,0,1,16,0V48a8,8,0,0,1-16,0Zm40,8a8,8,0,0,0,8-8V16a8,8,0,0,0-16,0V48A8,8,0,0,0,128,56Zm32,0a8,8,0,0,0,8-8V16a8,8,0,0,0-16,0V48A8,8,0,0,0,160,56Zm92.8,46.4L224,124v60a32,32,0,0,1-32,32H64a32,32,0,0,1-32-32V124L3.2,102.4a8,8,0,0,1,9.6-12.8L32,104V88A16,16,0,0,1,48,72H208a16,16,0,0,1,16,16v16l19.2-14.4a8,8,0,0,1,9.6,12.8ZM208,88H48v96a16,16,0,0,0,16,16H192a16,16,0,0,0,16-16Z"/>
  </symbol>
  <symbol id="icon-cooking-pot-fill" viewBox="0 0 256 256">
    <path d="M88,48V16a8,8,0,0,1,16,0V48a8,8,0,0,1-16,0Zm40,8a8,8,0,0,0,8-8V16a8,8,0,0,0-16,0V48A8,8,0,0,0,128,56Zm32,0a8,8,0,0,0,8-8V16a8,8,0,0,0-16,0V48A8,8,0,0,0,160,56Zm94.4,35.2a8,8,0,0,0-11.2-1.6L224,104V88a16,16,0,0,0-16-16H48A16,16,0,0,0,32,88v16L12.8,89.6a8,8,0,0,0-9.6,12.8L32,124v60a32,32,0,0,0,32,32H192a32,32,0,0,0,32-32V124l28.8-21.6A8,8,0,0,0,254.4,91.2Z"/>
  </symbol>
  <symbol id="icon-basket-regular" viewBox="0 0 256 256">
    <path d="M136,120v56a8,8,0,0,1-16,0V120a8,8,0,0,1,16,0ZM239.86,98.11,226,202.12A16,16,0,0,1,210.13,216H45.87A16,16,0,0,1,30,202.12l-13.87-104A16,16,0,0,1,32,80H68.37L122,18.73a8,8,0,0,1,12,0L187.63,80H224a16,16,0,0,1,15.85,18.11ZM89.63,80h76.74L128,36.15ZM224,96H32L45.87,200H210.13Zm-51.16,23.2-5.6,56A8,8,0,0,0,174.4,184a7.44,7.44,0,0,0,.81,0,8,8,0,0,0,7.95-7.2l5.6-56a8,8,0,0,0-15.92-1.6Zm-89.68,0a8,8,0,0,0-15.92,1.6l5.6,56a8,8,0,0,0,8,7.2,7.44,7.44,0,0,0,.81,0,8,8,0,0,0,7.16-8.76Z"/>
  </symbol>
  <symbol id="icon-basket-fill" viewBox="0 0 256 256">
    <path d="M236,85.46A16,16,0,0,0,224,80H187.63L134,18.73a8,8,0,0,0-12,0L68.37,80H32A16,16,0,0,0,16.14,98.11L30,202.12A16,16,0,0,0,45.87,216H210.13A16,16,0,0,0,226,202.12l13.87-104A16,16,0,0,0,236,85.46ZM81.6,184a7.44,7.44,0,0,1-.81,0,8,8,0,0,1-8-7.2l-5.6-56a8,8,0,0,1,15.92-1.6l5.6,56A8,8,0,0,1,81.6,184Zm54.4-8a8,8,0,0,1-16,0V120a8,8,0,0,1,16,0ZM89.63,80,128,36.15,166.37,80Zm99.13,40.8-5.6,56a8,8,0,0,1-7.95,7.2,7.44,7.44,0,0,1-.81,0,8,8,0,0,1-7.16-8.76l5.6-56a8,8,0,0,1,15.92,1.6Z"/>
  </symbol>
  <symbol id="icon-storefront-regular" viewBox="0 0 256 256">
    <path d="M232,96a7.89,7.89,0,0,0-.3-2.2L217.35,43.6A16.07,16.07,0,0,0,202,32H54A16.07,16.07,0,0,0,38.65,43.6L24.31,93.8A7.89,7.89,0,0,0,24,96v16a40,40,0,0,0,16,32v64a16,16,0,0,0,16,16H200a16,16,0,0,0,16-16V144a40,40,0,0,0,16-32ZM54,48H202l11.42,40H42.61Zm50,56h48v8a24,24,0,0,1-48,0Zm-16,0v8a24,24,0,0,1-48,0v-8ZM200,208H56V151.2a40.57,40.57,0,0,0,8,.8,40,40,0,0,0,32-16,40,40,0,0,0,64,0,40,40,0,0,0,32,16,40.57,40.57,0,0,0,8-.8Zm-8-72a24,24,0,0,1-24-24v-8h48v8A24,24,0,0,1,192,136Z"/>
  </symbol>
  <symbol id="icon-printer-regular" viewBox="0 0 256 256">
    <path d="M214.67,72H200V40a8,8,0,0,0-8-8H64a8,8,0,0,0-8,8V72H41.33C27.36,72,16,82.77,16,96v80a8,8,0,0,0,8,8H56v32a8,8,0,0,0,8,8H192a8,8,0,0,0,8-8V184h32a8,8,0,0,0,8-8V96C240,82.77,228.64,72,214.67,72ZM72,48H184V72H72ZM184,208H72V160H184Zm40-40H200V152a8,8,0,0,0-8-8H64a8,8,0,0,0-8,8v16H32V96c0-4.41,4.19-8,9.33-8H214.67c5.14,0,9.33,3.59,9.33,8Zm-24-52a12,12,0,1,1-12-12A12,12,0,0,1,200,116Z"/>
  </symbol>
  <symbol id="icon-calendar-blank-regular" viewBox="0 0 256 256">
    <path d="M208,32H184V24a8,8,0,0,0-16,0v8H88V24a8,8,0,0,0-16,0v8H48A16,16,0,0,0,32,48V208a16,16,0,0,0,16,16H208a16,16,0,0,0,16-16V48A16,16,0,0,0,208,32ZM72,48v8a8,8,0,0,0,16,0V48h80v8a8,8,0,0,0,16,0V48h24V80H48V48ZM208,208H48V96H208V208Z"/>
  </symbol>
  <symbol id="icon-calendar-plus-regular" viewBox="0 0 256 256">
    <path d="M208,32H184V24a8,8,0,0,0-16,0v8H88V24a8,8,0,0,0-16,0v8H48A16,16,0,0,0,32,48V208a16,16,0,0,0,16,16H208a16,16,0,0,0,16-16V48A16,16,0,0,0,208,32ZM72,48v8a8,8,0,0,0,16,0V48h80v8a8,8,0,0,0,16,0V48h24V80H48V48ZM208,208H48V96H208V208Zm-48-56a8,8,0,0,1-8,8H136v16a8,8,0,0,1-16,0V160H104a8,8,0,0,1,0-16h16V128a8,8,0,0,1,16,0v16h16A8,8,0,0,1,160,152Z"/>
  </symbol>
  <symbol id="icon-caret-down-regular" viewBox="0 0 256 256">
    <path d="M213.66,101.66l-80,80a8,8,0,0,1-11.32,0l-80-80A8,8,0,0,1,53.66,90.34L128,164.69l74.34-74.35a8,8,0,0,1,11.32,11.32Z"/>
  </symbol>
  <symbol id="icon-caret-up-regular" viewBox="0 0 256 256">
    <path d="M213.66,165.66a8,8,0,0,1-11.32,0L128,91.31,53.66,165.66a8,8,0,0,1-11.32-11.32l80-80a8,8,0,0,1,11.32,0l80,80A8,8,0,0,1,213.66,165.66Z"/>
  </symbol>
  <symbol id="icon-dots-three-regular" viewBox="0 0 256 256">
    <path d="M140,128a12,12,0,1,1-12-12A12,12,0,0,1,140,128Zm56-12a12,12,0,1,0,12,12A12,12,0,0,0,196,116ZM60,116a12,12,0,1,0,12,12A12,12,0,0,0,60,116Z"/>
  </symbol>
  <symbol id="icon-dots-six-vertical-regular" viewBox="0 0 256 256">
    <path d="M104,60A12,12,0,1,1,92,48,12,12,0,0,1,104,60Zm60,12a12,12,0,1,0-12-12A12,12,0,0,0,164,72ZM92,116a12,12,0,1,0,12,12A12,12,0,0,0,92,116Zm72,0a12,12,0,1,0,12,12A12,12,0,0,0,164,116ZM92,184a12,12,0,1,0,12,12A12,12,0,0,0,92,184Zm72,0a12,12,0,1,0,12,12A12,12,0,0,0,164,184Z"/>
  </symbol>
  <symbol id="icon-book-open-text-regular" viewBox="0 0 256 256">
    <path d="M224,48H160a40,40,0,0,0-32,16A40,40,0,0,0,96,48H32A16,16,0,0,0,16,64V192a16,16,0,0,0,16,16H96a24,24,0,0,1,24,24,8,8,0,0,0,16,0,24,24,0,0,1,24-24h64a16,16,0,0,0,16-16V64A16,16,0,0,0,224,48ZM96,192H32V64H96a24,24,0,0,1,24,24V200A39.81,39.81,0,0,0,96,192Zm128,0H160a39.81,39.81,0,0,0-24,8V88a24,24,0,0,1,24-24h64ZM160,88h40a8,8,0,0,1,0,16H160a8,8,0,0,1,0-16Zm48,40a8,8,0,0,1-8,8H160a8,8,0,0,1,0-16h40A8,8,0,0,1,208,128Zm0,32a8,8,0,0,1-8,8H160a8,8,0,0,1,0-16h40A8,8,0,0,1,208,160Z"/>
  </symbol>
  <symbol id="icon-arrows-clockwise-regular" viewBox="0 0 256 256">
    <path d="M197.67,186.37a8,8,0,0,1,0,11.29C196.58,198.73,170.82,224,128,224c-37.39,0-64.53-22.4-80-39.85V208a8,8,0,0,1-16,0V160a8,8,0,0,1,8-8H88a8,8,0,0,1,0,16H55.44C67.76,183.35,93,208,128,208c36,0,58.14-21.46,58.36-21.68A8,8,0,0,1,197.67,186.37ZM216,40a8,8,0,0,0-8,8V71.85C192.53,54.4,165.39,32,128,32,85.18,32,59.42,57.27,58.34,58.34a8,8,0,0,0,11.3,11.34C69.86,69.46,92,48,128,48c35,0,60.24,24.65,72.56,40H168a8,8,0,0,0,0,16h48a8,8,0,0,0,8-8V48A8,8,0,0,0,216,40Z"/>
  </symbol>
  <symbol id="icon-trash-regular" viewBox="0 0 256 256">
    <path d="M216,48H176V40a24,24,0,0,0-24-24H104A24,24,0,0,0,80,40v8H40a8,8,0,0,0,0,16h8V208a16,16,0,0,0,16,16H192a16,16,0,0,0,16-16V64h8a8,8,0,0,0,0-16ZM96,40a8,8,0,0,1,8-8h48a8,8,0,0,1,8,8v8H96Zm96,168H64V64H192ZM112,104v64a8,8,0,0,1-16,0V104a8,8,0,0,1,16,0Zm48,0v64a8,8,0,0,1-16,0V104a8,8,0,0,1,16,0Z"/>
  </symbol>
  <symbol id="icon-clock-regular" viewBox="0 0 256 256">
    <path d="M128,24A104,104,0,1,0,232,128,104.11,104.11,0,0,0,128,24Zm0,192a88,88,0,1,1,88-88A88.1,88.1,0,0,1,128,216Zm64-88a8,8,0,0,1-8,8H128a8,8,0,0,1-8-8V72a8,8,0,0,1,16,0v48h48A8,8,0,0,1,192,128Z"/>
  </symbol>
  <symbol id="icon-gauge-regular" viewBox="0 0 256 256">
    <path d="M207.06,80.67A111.24,111.24,0,0,0,128,48h-.4C66.07,48.21,16,99,16,161.13V184a16,16,0,0,0,16,16H224a16,16,0,0,0,16-16V160A111.25,111.25,0,0,0,207.06,80.67ZM224,184H119.71l54.76-75.3a8,8,0,0,0-12.94-9.42L99.92,184H32V161.13c0-3.08.15-6.12.43-9.13H56a8,8,0,0,0,0-16H35.27c10.32-38.86,44-68.24,84.73-71.66V88a8,8,0,0,0,16,0V64.33A96.14,96.14,0,0,1,221,136H200a8,8,0,0,0,0,16h23.67c.21,2.65.33,5.31.33,8Z"/>
  </symbol>
  <symbol id="icon-fork-knife-regular" viewBox="0 0 256 256">
    <path d="M72,88V40a8,8,0,0,1,16,0V88a8,8,0,0,1-16,0ZM216,40V224a8,8,0,0,1-16,0V176H152a8,8,0,0,1-8-8,268.75,268.75,0,0,1,7.22-56.88c9.78-40.49,28.32-67.63,53.63-78.47A8,8,0,0,1,216,40ZM200,53.9c-32.17,24.57-38.47,84.42-39.7,106.1H200ZM119.89,38.69a8,8,0,1,0-15.78,2.63L112,88.63a32,32,0,0,1-64,0l7.88-47.31a8,8,0,1,0-15.78-2.63l-8,48A8.17,8.17,0,0,0,32,88a48.07,48.07,0,0,0,40,47.32V224a8,8,0,0,0,16,0V135.32A48.07,48.07,0,0,0,128,88a8.17,8.17,0,0,0-.11-1.31Z"/>
  </symbol>
  <symbol id="icon-fork-knife-duotone" viewBox="0 0 256 256">
    <path d="M208,40V168H152S152,64,208,40Z" opacity="0.2"/><path d="M72,88V40a8,8,0,0,1,16,0V88a8,8,0,0,1-16,0ZM216,40V224a8,8,0,0,1-16,0V176H152a8,8,0,0,1-8-8,268.75,268.75,0,0,1,7.22-56.88c9.78-40.49,28.32-67.63,53.63-78.47A8,8,0,0,1,216,40ZM200,53.9c-32.17,24.57-38.47,84.42-39.7,106.1H200ZM119.89,38.69a8,8,0,1,0-15.78,2.63L112,88.63a32,32,0,0,1-64,0l7.88-47.31a8,8,0,1,0-15.78-2.63l-8,48A8.17,8.17,0,0,0,32,88a48.07,48.07,0,0,0,40,47.32V224a8,8,0,0,0,16,0V135.32A48.07,48.07,0,0,0,128,88a8.17,8.17,0,0,0-.11-1.31Z"/>
  </symbol>
  <symbol id="icon-tray-regular" viewBox="0 0 256 256">
    <path d="M208,32H48A16,16,0,0,0,32,48V208a16,16,0,0,0,16,16H208a16,16,0,0,0,16-16V48A16,16,0,0,0,208,32Zm0,16V152h-28.7A15.86,15.86,0,0,0,168,156.69L148.69,176H107.31L88,156.69A15.86,15.86,0,0,0,76.69,152H48V48Zm0,160H48V168H76.69L96,187.31A15.86,15.86,0,0,0,107.31,192h41.38A15.86,15.86,0,0,0,160,187.31L179.31,168H208v40Z"/>
  </symbol>
  <symbol id="icon-x-regular" viewBox="0 0 256 256">
    <path d="M205.66,194.34a8,8,0,0,1-11.32,11.32L128,139.31,61.66,205.66a8,8,0,0,1-11.32-11.32L116.69,128,50.34,61.66A8,8,0,0,1,61.66,50.34L128,116.69l66.34-66.35a8,8,0,0,1,11.32,11.32L139.31,128Z"/>
  </symbol>
  <symbol id="icon-arrow-counter-clockwise-regular" viewBox="0 0 256 256">
    <path d="M224,128a96,96,0,0,1-94.71,96H128A95.38,95.38,0,0,1,62.1,197.8a8,8,0,0,1,11-11.63A80,80,0,1,0,71.43,71.39a3.07,3.07,0,0,1-.26.25L44.59,96H72a8,8,0,0,1,0,16H24a8,8,0,0,1-8-8V56a8,8,0,0,1,16,0V85.8L60.25,60A96,96,0,0,1,224,128Z"/>
  </symbol>
  <symbol id="icon-carrot-duotone" viewBox="0 0 256 256">
    <path d="M183.6,151.6C144,192,43.81,223,43.81,223A8,8,0,0,1,33,212.19S64,112,104.4,72.4a56,56,0,0,1,79.2,79.2Z" opacity="0.2"/><path d="M232,64H203.31l26.35-26.34a8,8,0,0,0-11.32-11.32L192,52.69V24a8,8,0,0,0-16,0V56.57a64,64,0,0,0-77.2,10.12l0,0,0,0,0,0c-40.1,39.39-70.25,133.08-73.19,142.45a16,16,0,0,0,21.26,21.26c9.37-2.94,103.18-33.13,142.47-73.21A64,64,0,0,0,199.43,80H232a8,8,0,0,0,0-16Zm-54.12,82c-8.94,9.12-21.25,17.8-34.85,25.73l-25.38-25.39a8,8,0,0,0-11.32,11.32l22.09,22.09c-40.87,21.19-86.32,35.42-87,35.63A7.93,7.93,0,0,0,40,216a7.93,7.93,0,0,0,.59-1.41c.29-.93,28-89.58,64-130.67l33.77,33.77a8,8,0,0,0,11.32-11.32L116.18,72.88A48,48,0,0,1,177.88,146Z"/>
  </symbol>
  <symbol id="icon-bowl-food-duotone" viewBox="0 0 256 256">
    <path d="M224,112a96,96,0,0,1-56,87.3V208a8,8,0,0,1-8,8H96a8,8,0,0,1-8-8v-8.7A96,96,0,0,1,32,112Z" opacity="0.2"/><path d="M224,104h-8.37a88,88,0,0,0-175.26,0H32a8,8,0,0,0-8,8,104.35,104.35,0,0,0,56,92.28V208a16,16,0,0,0,16,16h64a16,16,0,0,0,16-16v-3.72A104.35,104.35,0,0,0,232,112,8,8,0,0,0,224,104ZM173.48,56.23q2.75,2.25,5.27,4.75a87.92,87.92,0,0,0-49.15,43H100.1A72.26,72.26,0,0,1,168,56C169.83,56,171.66,56.09,173.48,56.23Zm15.91,18.2A71.45,71.45,0,0,1,199.54,104H148.12A71.84,71.84,0,0,1,189.39,74.43ZM128,40a71.87,71.87,0,0,1,19,2.57A88.36,88.36,0,0,0,83.33,104H56.46A72.08,72.08,0,0,1,128,40Zm36.66,152A8,8,0,0,0,160,199.3V208H96v-8.7A8,8,0,0,0,91.34,192a88.29,88.29,0,0,1-51-72H215.63A88.29,88.29,0,0,1,164.66,192Z"/>
  </symbol>
  <symbol id="icon-orange-slice-duotone" viewBox="0 0 256 256">
    <path d="M216,88A88,88,0,0,1,40,88Z" opacity="0.2"/><path d="M248,80H8a8,8,0,0,0-8,8,128,128,0,0,0,256,0A8,8,0,0,0,248,80ZM77.4,149.91l42.6-42.6V167.6A79.59,79.59,0,0,1,77.4,149.91ZM66.09,138.6A79.59,79.59,0,0,1,48.4,96h60.29ZM136,107.31l42.6,42.6A79.59,79.59,0,0,1,136,167.6Zm53.91,31.29L147.31,96H207.6A79.59,79.59,0,0,1,189.91,138.6ZM128,200A112.15,112.15,0,0,1,16.28,96H32.34a96,96,0,0,0,191.32,0h16.06A112.15,112.15,0,0,1,128,200Z"/>
  </symbol>
  <symbol id="icon-truck-regular" viewBox="0 0 256 256">
    <path d="M247.42,117l-14-35A15.93,15.93,0,0,0,218.58,72H184V64a8,8,0,0,0-8-8H24A16,16,0,0,0,8,72V184a16,16,0,0,0,16,16H41a32,32,0,0,0,62,0h50a32,32,0,0,0,62,0h17a16,16,0,0,0,16-16V120A7.94,7.94,0,0,0,247.42,117ZM184,88h34.58l9.6,24H184ZM24,72H168v64H24ZM72,208a16,16,0,1,1,16-16A16,16,0,0,1,72,208Zm81-24H103a32,32,0,0,0-62,0H24V152H168v12.31A32.11,32.11,0,0,0,153,184Zm31,24a16,16,0,1,1,16-16A16,16,0,0,1,184,208Zm48-24H215a32.06,32.06,0,0,0-31-24V128h48Z"/>
  </symbol>
</svg>
